Coordinates
version=1
nRows=19
nColumns=34
inDegrees=no

Units are S.I. units (second, meters, Newtons, ...)
If the header above contains a line with 'inDegrees', this indicates whether rotational values are in degrees (yes) or radians (no).

endheader
time	pelvis_tilt	pelvis_list	pelvis_rotation	pelvis_tx	pelvis_ty	pelvis_tz	hip_flexion_r	hip_adduction_r	hip_rotation_r	knee_angle_r	ankle_angle_r	subtalar_angle_r	mtp_angle_r	hip_flexion_l	hip_adduction_l	hip_rotation_l	knee_angle_l	ankle_angle_l	subtalar_angle_l	mtp_angle_l	lumbar_extension	lumbar_bending	lumbar_rotation	arm_flex_r	arm_add_r	arm_rot_r	elbow_flex_r	pro_sup_r	arm_flex_l	arm_add_l	arm_rot_l	elbow_flex_l	pro_sup_l
46.878	0.00177672	-0.0647533	5.37914	-0.929516	0.850261	1.60761	0.381817	0.114416	-0.0741932	1.03657	0.487491	-0.542034	-0.133286	0.799388	-0.515251	-0.0633741	0.99693	-0.372882	-0.428802	-0.133286	-0.242367	0.0549607	0.0270582	-5.83052	-0.422734	-6.46124	0.443636	2.06217	12.9816	-0.269123	12.3825	0.391658	1.80769
46.898	0.00927789	-0.0718845	5.40869	-0.935406	0.849258	1.60779	0.377995	0.116476	-0.0940828	1.03992	0.48597	-0.56339	-0.133286	0.831257	-0.48317	-0.0439477	1.12484	-0.344984	-0.470888	-0.133286	-0.246563	0.0528245	0.0367891	-5.81244	-0.383338	-6.41277	0.454111	2.01476	12.9812	-0.210472	12.463	0.397963	1.67772
46.918	0.0146479	-0.0751334	5.43658	-0.940327	0.84763	1.60863	0.378527	0.115551	-0.115208	1.04576	0.487686	-0.576969	-0.133286	0.853673	-0.450544	-0.0301667	1.24752	-0.309351	-0.492407	-0.133286	-0.246404	0.0494794	0.0465185	-5.79689	-0.349943	-6.35069	0.475766	1.94454	12.9788	-0.164123	12.563	0.417287	1.52869
46.9379	0.0177789	-0.0745229	5.46086	-0.944386	0.845233	1.61008	0.384031	0.112962	-0.134582	1.05519	0.492122	-0.585141	-0.133286	0.862424	-0.420675	-0.0273846	1.35621	-0.261643	-0.495501	-0.133286	-0.24229	0.0448819	0.0561036	-5.78269	-0.322689	-6.27423	0.508691	1.85503	12.9734	-0.132987	12.6882	0.450141	1.36107
46.9579	0.0188682	-0.0706679	5.48111	-0.947641	0.841937	1.61191	0.394643	0.10979	-0.150358	1.06921	0.498539	-0.59072	-0.133286	0.857726	-0.395313	-0.0352736	1.44313	-0.203298	-0.488582	-0.133286	-0.235288	0.0392646	0.0654133	-5.76762	-0.301743	-6.18504	0.55128	1.75178	12.9669	-0.117911	12.84	0.4947	1.17831
46.9779	0.0186959	-0.0649674	5.49853	-0.950183	0.837776	1.6137	0.409359	0.106611	-0.162371	1.08814	0.505913	-0.595833	-0.133286	0.845716	-0.375056	-0.0490509	1.50476	-0.146048	-0.483071	-0.133286	-0.227264	0.0332587	0.0744726	-5.74924	-0.287555	-6.08653	0.601166	1.64043	12.9632	-0.115779	13.0104	0.545796	0.993425
46.9979	0.0185803	-0.0593023	5.51486	-0.952169	0.833113	1.61504	0.425678	0.10356	-0.171515	1.11067	0.512983	-0.601109	-0.133286	0.836424	-0.359939	-0.0625743	1.54449	-0.108142	-0.487166	-0.133286	-0.220522	0.0276594	0.0839358	-5.72601	-0.280888	-5.98276	0.656453	1.52534	12.9669	-0.118364	13.1797	0.594697	0.829857
47.0179	0.0198617	-0.0553389	5.53135	-0.953832	0.828567	1.61561	0.440484	0.100564	-0.178853	1.13412	0.51849	-0.605751	-0.133286	0.839022	-0.349116	-0.07145	1.57082	-0.105289	-0.503095	-0.133286	-0.217025	0.023026	0.0943673	-5.69719	-0.281924	-5.87758	0.716008	1.40997	12.9798	-0.118573	13.3316	0.636314	0.703828
47.0379	0.0230567	-0.0537452	5.5481	-0.955426	0.824753	1.6153	0.451762	0.0976005	-0.185041	1.15552	0.521285	-0.609026	-0.133286	0.858147	-0.340413	-0.0747245	1.59189	-0.143305	-0.528718	-0.133286	-0.217306	0.0195417	0.105747	-5.66289	-0.289384	-5.77573	0.778799	1.29897	13.0014	-0.112127	13.4552	0.668713	0.622645
47.0579	0.0276025	-0.0538314	5.56443	-0.957141	0.822039	1.61418	0.459439	0.0947014	-0.190192	1.17247	0.521219	-0.611013	-0.133286	0.893093	-0.330419	-0.0746328	1.6112	-0.215076	-0.558466	-0.133286	-0.220084	0.0168119	0.117116	-5.62419	-0.300031	-5.68348	0.842587	1.19856	13.0297	-0.0976764	13.5462	0.69162	0.584848
47.0779	0.0324547	-0.0540589	5.57933	-0.959043	0.820507	1.61249	0.464667	0.0917969	-0.194018	1.18351	0.519588	-0.61209	-0.133286	0.939218	-0.315697	-0.0752061	1.62791	-0.303537	-0.584091	-0.133286	-0.223162	0.0138618	0.127017	-5.58241	-0.309293	-5.60598	0.90278	1.11254	13.0622	-0.0755302	13.6041	0.705286	0.58303
47.0979	0.0369485	-0.0534074	5.59177	-0.961098	0.82002	1.61051	0.468299	0.0886051	-0.196598	1.18842	0.518182	-0.61261	-0.133286	0.99101	-0.295122	-0.0803269	1.64078	-0.38999	-0.599325	-0.133286	-0.22536	0.00997678	0.134864	-5.53956	-0.315572	-5.54336	0.958377	1.03814	13.0976	-0.0474336	13.6343	0.711828	0.603683
47.1179	0.0416407	-0.0515689	5.60086	-0.963275	0.82041	1.60855	0.469954	0.0839952	-0.198569	1.18801	0.518288	-0.612728	-0.133286	1.04498	-0.271099	-0.0927077	1.65166	-0.460769	-0.602179	-0.133286	-0.227325	0.00433353	0.140564	-5.4968	-0.318562	-5.49296	1.00971	0.971768	13.1377	-0.0187109	13.6507	0.718372	0.626928
47.1379	0.0477575	-0.0484261	5.60648	-0.965516	0.821701	1.60676	0.468527	0.0759558	-0.201108	1.18313	0.519676	-0.612323	-0.133286	1.10124	-0.248109	-0.112742	1.66538	-0.508256	-0.592508	-0.133286	-0.230435	-0.00359622	0.144698	-5.45478	-0.319321	-5.45238	1.05776	0.913172	13.1829	0.00912205	13.6579	0.727802	0.643953
47.1579	0.056631	-0.0434245	5.60959	-0.96774	0.824072	1.60517	0.463192	0.0621144	-0.205299	1.17455	0.520642	-0.610974	-0.133286	1.16209	-0.230241	-0.138763	1.68674	-0.530724	-0.571556	-0.133286	-0.235763	-0.0144022	0.147331	-5.41349	-0.319468	-5.4199	1.10371	0.864142	13.2326	0.0359605	13.6557	0.741007	0.65395
47.1779	0.0691868	-0.0358993	5.61171	-0.969844	0.827743	1.60373	0.453604	0.0411581	-0.211319	1.16261	0.519263	-0.60803	-0.133286	1.22898	-0.220125	-0.168228	1.71767	-0.532183	-0.5435	-0.133286	-0.24374	-0.0285369	0.148103	-5.37242	-0.320679	-5.39451	1.14886	0.826532	13.2854	0.0617766	13.6422	0.7582	0.660841
47.1979	0.0855375	-0.0254928	5.61434	-0.971713	0.832831	1.60236	0.439868	0.0135431	-0.218517	1.14706	0.514669	-0.602819	-0.133286	1.30076	-0.218468	-0.198657	1.757	-0.520243	-0.51474	-0.133286	-0.254116	-0.0460072	0.14661	-5.33106	-0.324202	-5.37576	1.19449	0.799996	13.3393	0.0860151	13.6167	0.779622	0.668095
47.2179	0.104803	-0.0123331	5.61859	-0.973256	0.839266	1.60099	0.422675	-0.0186437	-0.225899	1.12734	0.50686	-0.595125	-0.133286	1.37417	-0.22387	-0.227734	1.80206	-0.502389	-0.489524	-0.133286	-0.266043	-0.0661576	0.142568	-5.2892	-0.330387	-5.3634	1.24117	0.782722	13.3923	0.107653	13.5816	0.805136	0.677064
47.2379	0.125322	0.00289082	5.62495	-0.974457	0.846787	1.59955	0.403177	-0.0523746	-0.232796	1.10316	0.49603	-0.586017	-0.133286	1.44524	-0.23341	-0.253484	1.84994	-0.483951	-0.468714	-0.133286	-0.278405	-0.0876691	0.135811	-5.24675	-0.338604	-5.35683	1.28836	0.773161	13.4438	0.125298	13.5437	0.833874	0.686145
